<svg xmlns="http://www.w3.org/2000/svg" xmlns:xlink="http://www.w3.org/1999/xlink" style="margin: auto; background: rgb(241, 242, 243); display: block;" width="200px" height="200px" viewBox="0 0 100 100" preserveAspectRatio="xMidYMid">
  <g transform="translate(50 50)">
    <g>
      <animateTransform attributeName="transform" type="rotate" values="0;36" keyTimes="0;1" dur="0.15337423312883436s" repeatCount="indefinite"></animateTransform>
      <path d="M25.411611519146124 -5.5 L40.41161151914612 -5.5 L40.41161151914612 5.5 L25.411611519146124 5.5 A26 26 0 0 1 23.791244461051992 10.48697701887741 L23.791244461051992 10.48697701887741 L35.926499376676205 19.303755803264508 L29.460861601458998 28.202942741388927 L17.325606685834785 19.38616395700183 A26 26 0 0 1 13.083430653493672 22.468285255782696 L13.083430653493672 22.468285255782696 L17.718685569117884 36.73413300021 L7.257063889871199 40.133319938334424 L2.621808974246987 25.86747219390712 A26 26 0 0 1 -2.6218089742469837 25.86747219390712 L-2.6218089742469837 25.86747219390712 L-7.257063889871194 40.133319938334424 L-17.718685569117877 36.73413300021 L-13.083430653493668 22.4682852557827 A26 26 0 0 1 -17.325606685834785 19.38616395700183 L-17.325606685834785 19.38616395700183 L-29.460861601458994 28.20294274138893 L-35.9264993766762 19.303755803264515 L-23.79124446105199 10.486977018877417 A26 26 0 0 1 -25.411611519146124 5.5 L-25.411611519146124 5.5 L-40.41161151914612 5.500000000000002 L-40.41161151914612 -5.499999999999992 L-25.411611519146124 -5.499999999999994 A26 26 0 0 1 -23.791244461051992 -10.48697701887741 L-23.791244461051992 -10.48697701887741 L-35.926499376676205 -19.303755803264504 L-29.460861601459005 -28.202942741388924 L-17.325606685834792 -19.386163957001827 A26 26 0 0 1 -13.083430653493682 -22.468285255782693 L-13.083430653493682 -22.468285255782693 L-17.718685569117895 -36.734133000209994 L-7.257063889871192 -40.133319938334424 L-2.6218089742469783 -25.86747219390712 A26 26 0 0 1 2.621808974246969 -25.86747219390712 L2.621808974246969 -25.86747219390712 L7.257063889871177 -40.133319938334424 L17.71868556911788 -36.73413300021 L13.083430653493673 -22.468285255782696 A26 26 0 0 1 17.325606685834774 -19.38616395700184 L17.325606685834774 -19.38616395700184 L29.460861601458987 -28.20294274138894 L35.926499376676205 -19.303755803264508 L23.791244461051992 -10.486977018877408 A26 26 0 0 1 25.411611519146124 -5.500000000000014 M0 -20A20 20 0 1 0 0 20 A20 20 0 1 0 0 -20" fill="#1d0e0b"></path>
    </g>
  </g>
</svg>
